<svg width="24" height="24" viewBox="0 0 24 24" fill="none" xmlns="http://www.w3.org/2000/svg">
<path fill-rule="evenodd" clip-rule="evenodd" d="M10.6315 4.30997C10.6315 4.89218 10.8181 5.28032 11.2536 5.60377L11.689 5.79784C10.0095 5.79784 8.5166 6.0566 7.21033 6.76819C5.46863 7.60916 5.46863 6.83288 4.41117 6.83288C3.85133 6.83288 3.2915 7.93261 4.22456 8.45013C4.47337 8.57951 4.971 8.77358 5.28202 8.77358C4.41117 10.5202 3.54032 12.3315 2.66947 14.0782C2.48286 14.0782 2.23404 14.0135 2.10963 14.1429C1.73641 14.4663 2.42065 15.372 2.60726 15.6307L3.2915 16.1482C4.84659 17.1186 7.70795 17.1833 9.07643 15.8248C9.44965 15.5013 9.94728 14.9191 9.94728 14.2722C9.94728 14.0135 9.44965 14.0782 9.32525 14.0782C9.26304 13.9488 9.07643 13.5606 9.01423 13.4313C8.26779 12.0081 7.33473 10.3908 6.7749 8.96765C6.65049 8.70889 6.7127 8.83827 7.21033 8.70889C8.32999 8.45013 9.57406 7.73854 10.6315 7.73854V18.2183C9.88508 18.2183 9.32525 18.8652 9.32525 19.6415H7.77016C7.27253 19.6415 6.65049 20.2237 6.65049 21H12H17.3495C17.3495 20.2237 16.7275 19.6415 16.2298 19.6415H14.6748C14.6748 18.8652 14.1149 18.2183 13.3685 18.2183V7.73854C14.4259 7.73854 15.67 8.45013 16.7897 8.70889C17.2873 8.83827 17.3495 8.70889 17.2251 8.96765C16.6031 10.3908 15.7322 12.0081 14.9858 13.4313C14.9236 13.5606 14.737 13.9488 14.6748 14.0782C14.5503 14.0782 13.9905 14.0135 13.9905 14.2722C13.9905 14.9191 14.5503 15.5013 14.9236 15.8248C16.2298 17.1833 19.1534 17.1186 20.7085 16.1482L21.3927 15.6307C21.5793 15.372 22.2636 14.4663 21.8904 14.1429C21.766 14.0135 21.5171 14.0782 21.3305 14.0782C20.4597 12.3315 19.5888 10.5202 18.718 8.77358C19.029 8.77358 19.5266 8.57951 19.7132 8.45013C20.7085 7.93261 20.0865 6.83288 19.5266 6.83288C18.5314 6.83288 18.5314 7.60916 16.7897 6.76819C15.4834 6.0566 13.9905 5.79784 12.311 5.79784L12.6842 5.60377C13.1819 5.28032 13.3685 4.89218 13.3685 4.30997C13.3685 2.56334 10.6315 2.56334 10.6315 4.30997ZM18.0337 9.03234L16.7897 11.5553L15.5456 14.0782H18.0337H20.4597L19.2778 11.5553L18.0337 9.03234ZM5.96626 9.03234L7.21033 11.5553L8.4544 14.0782H5.96626H3.47811L4.72218 11.5553L5.96626 9.03234Z" fill="#94A3B8"/>
</svg>
